<svg width="54" height="57" viewBox="0 0 54 57" fill="none" xmlns="http://www.w3.org/2000/svg">
<path d="M50.7935 28.5L21.6804 55M50.7935 28.5L21.6804 2M50.7935 28.5L21.6804 40.2778M50.7935 28.5L21.6804 16.7222M21.6804 55L2.27173 43.2222M21.6804 55V40.2778M2.27173 43.2222L21.6804 40.2778M2.27173 43.2222L2.27173 28.5M2.27173 13.7778L21.6804 2M2.27173 13.7778L21.6804 16.7222M2.27173 13.7778L2.27173 28.5M21.6804 2V16.7222M21.6804 40.2778L21.6804 16.7222M21.6804 40.2778L2.27173 28.5M21.6804 16.7222L2.27173 28.5" stroke="white" stroke-width="3"/>
</svg>
