<svg width="50" height="49" viewBox="0 0 106 105" fill="none" xmlns="http://www.w3.org/2000/svg">
<rect x="53.2547" y="26.1631" width="12.3333" height="12.3333" transform="rotate(45 53.2547 26.1631)" stroke="#66FCF1" stroke-width="4" stroke-linejoin="round"/>
<path fill-rule="evenodd" clip-rule="evenodd" d="M68.5164 41.4248L77.2374 50.1458L68.5164 58.8668L59.7954 50.1458L68.5164 41.4248Z" stroke="#66FCF1" stroke-width="4" stroke-linejoin="round"/>
<rect x="37.993" y="41.4248" width="12.3333" height="12.3333" transform="rotate(45 37.993 41.4248)" stroke="#66FCF1" stroke-width="4" stroke-linejoin="round"/>
<rect x="53.2547" y="56.6865" width="12.3333" height="12.3333" transform="rotate(45 53.2547 56.6865)" stroke="#66FCF1" stroke-width="4" stroke-linejoin="round"/>
<path  d="M68.1039 20.5062L85.0745 37.4768L90.7314 31.8199L73.7608 14.8494L68.1039 20.5062ZM85.0745 67.1753L68.1039 84.1458L73.7608 89.8027L90.7314 72.8321L85.0745 67.1753ZM38.4055 84.1458L21.4349 67.1753L15.778 72.8321L32.7486 89.8027L38.4055 84.1458ZM21.4349 37.4768L38.4055 20.5062L32.7486 14.8494L15.778 31.8199L21.4349 37.4768ZM21.4349 67.1753C13.2339 58.9743 13.2339 45.6778 21.4349 37.4768L15.778 31.8199C4.45283 43.1451 4.45283 61.5069 15.778 72.8321L21.4349 67.1753ZM68.1039 84.1458C59.9029 92.3468 46.6065 92.3468 38.4055 84.1458L32.7486 89.8027C44.0738 101.128 62.4356 101.128 73.7608 89.8027L68.1039 84.1458ZM85.0745 37.4768C93.2755 45.6778 93.2755 58.9743 85.0745 67.1753L90.7314 72.8321C102.057 61.5069 102.057 43.1451 90.7314 31.8199L85.0745 37.4768ZM73.7608 14.8494C62.4356 3.52416 44.0738 3.52416 32.7486 14.8494L38.4055 20.5062C46.6065 12.3052 59.9029 12.3052 68.1039 20.5062L73.7608 14.8494Z" fill="white"/>
</svg>
